<svg width="38" height="38" viewBox="0 0 38 38" fill="none" xmlns="http://www.w3.org/2000/svg">
<path fill-rule="evenodd" clip-rule="evenodd" d="M19 0C29.4934 0 38 8.50659 38 19C38 29.4934 29.4934 38 19 38C8.50659 38 0 29.4934 0 19C0 8.50659 8.50659 0 19 0ZM19 1.1875C9.16243 1.1875 1.1875 9.16243 1.1875 19C1.1875 28.8376 9.16243 36.8125 19 36.8125C28.8376 36.8125 36.8125 28.8376 36.8125 19C36.8125 9.16243 28.8376 1.1875 19 1.1875ZM26.1349 18.4026H9.5V19.5938H26.1349L20.7833 24.9375H22.5652L28.5 18.9957L22.5652 13.0625H20.7833L26.1349 18.4026Z" fill="white"/>
</svg>
