<svg width="62" height="55" viewBox="0 0 62 55" fill="none" xmlns="http://www.w3.org/2000/svg">
<path fill-rule="evenodd" clip-rule="evenodd" d="M58.4877 0H3.51235C1.85556 0 0.5 1.35028 0.5 3.0018V42.9342C0.5 44.585 1.85556 45.936 3.51235 45.936H29.7145L27.9907 50.4598L27.9922 50.456C27.9191 50.6458 27.8709 50.8559 27.8702 51.0879C27.8626 51.4441 28.0148 51.8846 28.3378 52.1723C28.6564 52.466 29.0578 52.5692 29.3884 52.5662C29.5029 52.5662 29.6136 52.5549 29.7198 52.5361L32.5363 52.033L32.6432 52.0616L32.6922 52.0895L34.465 54.3322C34.5945 54.4956 34.7549 54.6485 34.9635 54.7697C35.1691 54.8902 35.4319 54.9753 35.7136 54.9746C36.0705 54.9791 36.4252 54.8292 36.6617 54.6206C36.9034 54.4128 37.0488 54.1657 37.1422 53.9225L39.4911 47.7577L41.8399 53.9225C41.9333 54.165 42.0779 54.4112 42.3196 54.6206C42.5561 54.8285 42.9108 54.9791 43.2678 54.9746C43.5502 54.9753 43.8123 54.8902 44.0186 54.7697C44.2257 54.6492 44.3861 54.4971 44.5149 54.3344L44.5164 54.3322L46.2877 52.0925L46.366 52.0503L46.445 52.033L49.2623 52.5361C49.3685 52.5549 49.4792 52.5662 49.5937 52.5662C49.9236 52.5692 50.3257 52.4653 50.6443 52.1723C50.9673 51.8831 51.1187 51.4433 51.1112 51.0879C51.1104 50.8567 51.063 50.6488 50.9922 50.4613L50.9914 50.4598L49.2676 45.936H58.4877C60.1444 45.936 61.5 44.585 61.5 42.9342V3.0018C61.5 1.35028 60.1444 0 58.4877 0ZM35.4718 51.9667L34.4544 50.6812L34.4537 50.6797C34.1953 50.3589 33.8926 50.1578 33.574 50.011C33.254 49.8686 32.9128 49.782 32.5325 49.7798C32.4128 49.7798 32.2885 49.7896 32.159 49.8129L30.5436 50.1013L33.1636 43.2264C34.6043 44.2001 36.2919 44.838 38.1137 45.0316L35.4718 51.9667ZM30.6235 34.2127C30.6235 38.9722 34.5079 42.8446 39.284 42.8446C44.06 42.8446 47.9444 38.9722 47.9444 34.2127C47.9444 29.454 44.06 25.5816 39.284 25.5816C34.5079 25.5816 30.6235 29.454 30.6235 34.2127ZM28.7144 36.9027H9.53704V8.25533H52.463V36.9027H49.8535C50.0742 36.0405 50.2037 35.1428 50.2037 34.2127C50.2037 28.2031 45.3169 23.3299 39.284 23.3299C33.251 23.3299 28.3642 28.2031 28.3642 34.2127C28.3642 35.1435 28.4937 36.0412 28.7144 36.9027ZM46.4496 49.7805C46.5693 49.7805 46.6936 49.7903 46.8223 49.8129L48.4385 50.1021L45.7266 42.9869C44.3183 44.0164 42.6555 44.7138 40.8459 44.9728L43.511 51.9667L44.5277 50.682L44.5284 50.6812C44.7875 50.3596 45.0895 50.1578 45.4081 50.0117C45.7289 49.8686 46.0693 49.7828 46.4496 49.7805ZM59.2407 42.9342C59.2407 43.3409 58.8958 43.6843 58.4877 43.6843H48.4106L47.519 41.346C48.0996 40.681 48.5989 39.9467 49.0048 39.1545H53.9691C54.3833 39.1545 54.7222 38.8171 54.7222 38.4044V6.75443C54.7222 6.34174 54.3833 6.0036 53.9691 6.0036H8.03086C7.61667 6.0036 7.27778 6.34174 7.27778 6.75443V38.4036C7.27778 38.8163 7.61667 39.1537 8.03086 39.1537H29.5631C30.036 40.0762 30.6363 40.9197 31.3411 41.6668L30.5722 43.6843H3.51235C3.10417 43.6843 2.75926 43.3409 2.75926 42.9342V3.0018C2.75926 2.59514 3.10417 2.25098 3.51235 2.25098H58.4877C58.8958 2.25098 59.2407 2.59514 59.2407 3.0018V42.9342ZM37.0247 15.8231H15.9383C15.3147 15.8231 14.8086 15.3193 14.8086 14.6972C14.8086 14.0752 15.3147 13.5714 15.9383 13.5714H37.0247C37.6482 13.5714 38.1543 14.0752 38.1543 14.6972C38.1543 15.3193 37.6482 15.8231 37.0247 15.8231ZM15.9383 21.0766H27.9877C28.6112 21.0766 29.1173 21.5804 29.1173 22.2025C29.1173 22.8245 28.6112 23.3284 27.9877 23.3284H15.9383C15.3147 23.3284 14.8086 22.8245 14.8086 22.2025C14.8086 21.5804 15.3147 21.0766 15.9383 21.0766ZM34.3889 34.2767C34.3889 31.5814 36.5796 29.3975 39.284 29.3975C41.9883 29.3975 44.179 31.5814 44.179 34.2767C44.179 36.9713 41.9883 39.1552 39.284 39.1552C36.5796 39.1552 34.3889 36.9705 34.3889 34.2767ZM36.6481 34.276C36.6481 35.7242 37.8305 36.9027 39.284 36.9027C40.7374 36.9027 41.9198 35.7242 41.9198 34.276C41.9198 32.827 40.7374 31.6492 39.284 31.6492C37.8305 31.6492 36.6481 32.827 36.6481 34.276Z" fill="#A5FF14"/>
</svg>
