<svg width="60" height="55" viewBox="0 0 60 55" fill="none" xmlns="http://www.w3.org/2000/svg">
<path fill-rule="evenodd" clip-rule="evenodd" d="M50 9.414V21.713C55.902 24.528 60 30.537 60 37.5C60 47.149 52.149 55 42.5 55H40.5C39.947 55 39.5 54.553 39.5 54C39.5 53.447 39.947 53 40.5 53C46.841 53 52 47.841 52 41.5C52 39.105 51.258 36.883 50 35.04V47C50 47.553 49.553 48 49 48H1C0.447 48 0 47.553 0 47V9C0 8.723 0.113 8.473 0.294 8.292L8.293 0.293C8.48 0.105 8.734 0 9 0H57C57.404 0 57.77 0.243 57.924 0.617C57.975 0.741 57.991 0.871 57.991 1H58V24H56V3.414L50 9.414ZM30.414 8H48.586L54.586 2H36.414L30.414 8ZM27.293 8.293C27.105 8.48 27 8.734 27 9V16H23V9.414L30.414 2H33.586L27.293 8.293ZM27.586 2H9.414L3.414 8H21.586L27.586 2ZM2 46V10H21V17C21 17.553 21.447 18 22 18H28C28.553 18 29 17.553 29 17V10H48V20.899C46.268 20.323 44.423 20 42.5 20H41V15C41 14.625 40.791 14.282 40.458 14.11C40.123 13.938 39.723 13.967 39.419 14.186L25.419 24.186C25.156 24.374 25 24.677 25 25C25 25.323 25.156 25.626 25.419 25.813L39.419 35.813C39.723 36.031 40.123 36.058 40.458 35.889C40.791 35.718 41 35.375 41 35V30.011C43.668 30.126 46.103 31.154 48 32.79V46H2ZM54 41.5C54 45.219 52.489 48.591 50.048 51.035C54.789 48.381 58 43.309 58 37.5C58 28.953 51.047 22 42.5 22H40C39.447 22 39 21.553 39 21V16.943L27.721 25L39 33.057V29C39 28.447 39.447 28 40 28H40.5C47.944 28 54 34.056 54 41.5ZM4 42H16V44H4V42ZM16 38H4V40H16V38Z" fill="#A5FF14"/>
</svg>
