<svg width="43" height="58" viewBox="0 0 43 58" fill="none" xmlns="http://www.w3.org/2000/svg">
<path fill-rule="evenodd" clip-rule="evenodd" d="M9.67 26.89H9.55L9 26.62V31.5L12.6 34.2L11.4 35.8L7.4 32.8C7.14819 32.6112 7 32.3148 7 32V25.62L5.55 24.89C5.21372 24.7206 5.00114 24.3766 5 24V17C5.01386 16.5517 5.32453 16.1675 5.76 16.06L6 16V15C6 6.71575 12.7157 2.4998e-05 21 2.4998e-05C24.7333 -0.00682113 28.3322 1.39275 31.08 3.92003C32.3438 3.03904 33.8494 2.57094 35.39 2.58002C37.2493 2.75596 38.9061 3.82696 39.83 5.45003C43.9763 11.6347 42.1016 31.0481 42.0015 32.0841V32.0841L42 32.1C41.9683 32.4901 41.7121 32.8259 41.3441 32.9593C40.9762 33.0927 40.5643 32.9992 40.29 32.72L38.07 30.5C36.6937 29.1263 35.7305 27.394 35.29 25.5L32.45 26.92H32.33C31.3813 29.6405 29.4907 31.9318 27 33.38V38H31C37.0751 38 42 42.9249 42 49V58H40V49C40 44.0295 35.9706 40 31 40H26.76L21.92 57.27C21.7956 57.6967 21.4044 57.99 20.96 57.99C20.5156 57.99 20.1244 57.6967 20 57.27L15.24 40H11C6.02944 40 2 44.0295 2 49V58H0V49C0 42.9249 4.92487 38 11 38H15V33.38C12.5037 31.9245 10.6125 29.6216 9.67 26.89ZM9 24.38V17.28L7 17.78V23.38L9 24.38ZM35 15.72L33 15.22V15C33.0015 13.2721 32.6225 11.565 31.89 10H33C34.44 10 35 10.56 35 12V15.72ZM26 8.63002C27.0653 10.9938 28.8047 12.9906 31 14.37H31.08C30.9475 8.84718 26.3628 4.47748 20.84 4.61002C15.3172 4.74257 10.9475 9.32718 11.08 14.85C12.96 14.48 17.5 13.12 24.5 8.18003C24.7502 8.00436 25.067 7.95278 25.36 8.04002C25.6522 8.12866 25.8879 8.34595 26 8.63002ZM25 38.86L21 53.26L17 38.86V34.3C19.585 35.2332 22.415 35.2332 25 34.3V38.86ZM11 23C11 28.5229 15.4772 33 21 33C26.5228 33 31 28.5229 31 23V16.63C28.285 15.2906 26.0524 13.1418 24.61 10.48C17.43 15.35 12.89 16.58 11 16.89V23ZM35 23.38L33 24.38V17.28L35 17.78V23.38ZM40.17 29.77C40.56 24.55 41.17 11.07 38.17 6.55002C37.5847 5.45768 36.5012 4.72161 35.27 4.58003C33.32 4.46003 31.14 6.24003 30.14 7.24003C30.35 7.49003 30.54 7.74003 30.73 8.00002H32.99C34.082 7.88544 35.1674 8.26989 35.9437 9.04628C36.7201 9.82267 37.1046 10.908 36.99 12V23.07C36.9806 25.3232 37.878 27.4855 39.48 29.07L40.17 29.77ZM8 15C8.00078 9.92119 10.9592 5.30787 15.5746 3.18827C20.19 1.06867 25.6171 1.83097 29.47 5.14003C29.17 5.40003 28.92 5.64003 28.73 5.83003C25.1611 2.82439 20.1735 2.15999 15.9423 4.12657C11.711 6.09314 9.00335 10.3341 9 15V15.22L8 15.47V15ZM22 23V25H19C18.7058 25.0055 18.4241 24.8811 18.23 24.66C18.0407 24.4395 17.9568 24.1475 18 23.8601L19 16.8601L21 17.1401L20.15 23H22ZM15 21C16.1046 21 17 20.1046 17 19C17 17.8955 16.1046 17 15 17C13.8954 17 13 17.8955 13 19C13 20.1046 13.8954 21 15 21ZM27 21C28.1046 21 29 20.1046 29 19C29 17.8955 28.1046 17 27 17C25.8954 17 25 17.8955 25 19C25 20.1046 25.8954 21 27 21ZM20.17 27H19V29H20.17C22.2484 29.0074 24.2434 28.1827 25.71 26.7101L24.29 25.2901C23.2002 26.3874 21.7166 27.0032 20.17 27ZM27 50C27 49.4478 27.4477 49 28 49H36C36.5523 49 37 49.4478 37 50V54C37 54.5523 36.5523 55 36 55H28C27.4477 55 27 54.5523 27 54V50ZM29 53H35V51H29V53Z" fill="#A5FF14"/>
</svg>
