<svg width="182" height="73" viewBox="0 0 182 73" fill="none" xmlns="http://www.w3.org/2000/svg">
<g filter="url(#filter0_d_1110_4826)">
<path fill-rule="evenodd" clip-rule="evenodd" d="M26.7574 29.4792C29.0427 29.4792 30.8192 28.9839 32.087 27.9935C33.3547 27.003 33.9886 25.6254 33.9886 23.8609C33.9886 22.1795 33.4214 20.8894 32.2871 19.9905C31.1529 19.0916 29.5265 18.6421 27.408 18.6421H22.8791V15.8205H30.1353L32.6374 12H18V29.4792H26.7574ZM22.8791 25.9334V22.1629H26.4322C28.1336 22.1629 28.9843 22.7788 28.9843 24.0107C28.9843 24.6266 28.7675 25.1011 28.3338 25.434C27.9001 25.7669 27.2662 25.9334 26.4322 25.9334H22.8791ZM41.495 24.9096V29.4792H36.5408V12H44.5476C46.1323 12 47.5084 12.2622 48.6761 12.7866C49.8437 13.3109 50.7445 14.06 51.3784 15.0339C52.0123 16.0077 52.3292 17.1522 52.3292 18.4673C52.3292 19.7824 52.0123 20.9227 51.3784 21.8882C50.7445 22.8537 49.8437 23.5987 48.6761 24.1231C47.5084 24.6474 46.1323 24.9096 44.5476 24.9096H41.495ZM41.495 21.0143V15.8954H44.2473C45.2649 15.8954 46.0322 16.1201 46.5493 16.5696C47.0664 17.019 47.3249 17.6516 47.3249 18.4673C47.3249 19.283 47.0664 19.9114 46.5493 20.3526C46.0322 20.7937 45.2649 21.0143 44.2473 21.0143H41.495ZM66.4412 19.2414L59.2351 29.4792H54.5561V12H59.4352V22.2628L66.6664 12H71.3203V29.4792H66.4412V19.2414ZM79.9527 29.4792V15.9203H85.8827L87.9094 12H75.0735V29.4792H79.9527ZM91.3624 26.0832L89.9862 29.4792H84.9319L92.6635 12H97.5426L105.299 29.4792H100.145L98.7687 26.0832H91.3624ZM92.8136 22.4376L95.0655 16.8442L97.3174 22.4376H92.8136ZM110.579 29.4792V33H108.527L106.025 25.5589H106.65C107.685 25.5422 108.414 24.8347 108.84 23.4364C109.265 22.038 109.528 20.0238 109.628 17.3936L109.828 12H123.94V25.5589H126.317V33H121.788V29.4792H110.579ZM119.061 25.5589H112.43C112.914 24.8597 113.273 23.8609 113.506 22.5624C113.74 21.264 113.89 19.6825 113.957 17.8181L114.032 15.9203H119.061V25.5589ZM140.579 19.2414L133.373 29.4792H128.694V12H133.573V22.2628L140.804 12H145.458V29.4792H140.579V19.2414ZM154.166 29.4792V24.9096H157.218C158.803 24.9096 160.179 24.6474 161.347 24.1231C162.515 23.5987 163.415 22.8537 164.049 21.8882C164.683 20.9227 165 19.7824 165 18.4673C165 17.1522 164.683 16.0077 164.049 15.0339C163.415 14.06 162.515 13.3109 161.347 12.7866C160.179 12.2622 158.803 12 157.218 12H149.212V29.4792H154.166ZM154.166 15.8954V21.0143H156.918C157.936 21.0143 158.703 20.7937 159.22 20.3526C159.737 19.9114 159.996 19.283 159.996 18.4673C159.996 17.6516 159.737 17.019 159.22 16.5696C158.703 16.1201 157.936 15.8954 156.918 15.8954H154.166Z" fill="white"/>
<path fill-rule="evenodd" clip-rule="evenodd" d="M20.5 35H97.5C99.433 35 101 36.6176 101 38.6129V47.3871C101 49.3824 99.433 51 97.5 51H20.5C18.567 51 17 49.3824 17 47.3871V38.6129C17 36.6176 18.567 35 20.5 35Z" fill="#A5FF14"/>
<path fill-rule="evenodd" clip-rule="evenodd" d="M27.7252 45.4321C27.2858 45.6609 26.778 45.7753 26.2019 45.7753C25.5888 45.7753 25.0385 45.6521 24.5511 45.4057C24.0636 45.1594 23.6832 44.8162 23.4099 44.3763C23.1366 43.9364 23 43.4384 23 42.8824C23 42.3263 23.1366 41.8301 23.4099 41.3937C23.6832 40.9573 24.0617 40.6159 24.5455 40.3695C25.0293 40.1232 25.5814 40 26.2019 40C26.7853 40 27.2968 40.1126 27.7363 40.3379C28.1758 40.5631 28.5063 40.8869 28.7279 41.3092L27.6643 41.9005C27.4944 41.64 27.2821 41.4447 27.0272 41.3145C26.7724 41.1843 26.4936 41.1192 26.1908 41.1192C25.6737 41.1192 25.2454 41.2793 24.9056 41.5995C24.5658 41.9198 24.396 42.3474 24.396 42.8824C24.396 43.4173 24.564 43.8449 24.9001 44.1652C25.2361 44.4854 25.6664 44.6456 26.1908 44.6456C26.4936 44.6456 26.7724 44.5804 27.0272 44.4502C27.2821 44.32 27.4944 44.1247 27.6643 43.8643L28.7279 44.4555C28.4989 44.8778 28.1647 45.2034 27.7252 45.4321ZM31.3315 41.1825V45.7014H29.9466V40.0633H35.6191V45.7014H34.2453V41.1825H31.3315ZM40.2501 45.7753C40.7598 45.7753 41.2177 45.6978 41.6239 45.543C42.0302 45.3881 42.3662 45.1594 42.6321 44.8567L41.8898 44.0437C41.4688 44.452 40.9333 44.6561 40.2834 44.6561C39.7737 44.6561 39.3472 44.5347 39.0037 44.2919C38.6603 44.049 38.4479 43.72 38.3667 43.3047H43.0088C43.0236 43.1357 43.031 43.0055 43.031 42.914C43.031 42.3369 42.9036 41.8283 42.6487 41.3884C42.3939 40.9485 42.0394 40.6071 41.5851 40.3643C41.1309 40.1214 40.6157 40 40.0396 40C39.4561 40 38.9317 40.1232 38.4664 40.3695C38.0011 40.6159 37.6373 40.959 37.3751 41.3989C37.1129 41.8389 36.9818 42.3333 36.9818 42.8824C36.9818 43.4384 37.1166 43.9364 37.3862 44.3763C37.6558 44.8162 38.038 45.1594 38.5329 45.4057C39.0277 45.6521 39.6001 45.7753 40.2501 45.7753ZM38.3556 42.4284H41.7126C41.6535 42.0201 41.4725 41.6893 41.1697 41.4359C40.8668 41.1825 40.4902 41.0558 40.0396 41.0558C39.5964 41.0558 39.2216 41.1807 38.9151 41.4306C38.6086 41.6805 38.4221 42.0131 38.3556 42.4284ZM51.0411 47V44.5822H50.1437V40.0633H48.7588V44.5822H45.9337V40.0633H44.5488V45.7014H49.7449V47H51.0411ZM56.5363 45.4057C56.0563 45.6521 55.5134 45.7753 54.9077 45.7753C54.3095 45.7753 53.7703 45.6521 53.2902 45.4057C52.8101 45.1594 52.4352 44.8162 52.1657 44.3763C51.8961 43.9364 51.7613 43.4384 51.7613 42.8824C51.7613 42.3263 51.8961 41.8301 52.1657 41.3937C52.4352 40.9573 52.8101 40.6159 53.2902 40.3695C53.7703 40.1232 54.3095 40 54.9077 40C55.5134 40 56.0563 40.1232 56.5363 40.3695C57.0164 40.6159 57.3913 40.9573 57.6609 41.3937C57.9305 41.8301 58.0653 42.3263 58.0653 42.8824C58.0653 43.4384 57.9305 43.9364 57.6609 44.3763C57.3913 44.8162 57.0164 45.1594 56.5363 45.4057ZM54.9077 44.6456C54.3981 44.6456 53.9789 44.4837 53.6503 44.1599C53.3216 43.8361 53.1572 43.4103 53.1572 42.8824C53.1572 42.3544 53.3216 41.9286 53.6503 41.6048C53.9789 41.281 54.3981 41.1192 54.9077 41.1192C55.4174 41.1192 55.8384 41.281 56.1707 41.6048C56.5031 41.9286 56.6693 42.3544 56.6693 42.8824C56.6693 43.4103 56.5031 43.8361 56.1707 44.1599C55.8384 44.4837 55.4174 44.6456 54.9077 44.6456ZM59.8158 45.7014V46.9578H58.5306V44.5822H58.8076C59.1842 44.5681 59.4409 44.3376 59.5776 43.8906C59.7142 43.4437 59.8047 42.812 59.849 41.9955L59.9265 40.0633H64.8013V44.5822H65.6766V46.9578H64.3803V45.7014H59.8158ZM63.4165 44.5822H60.5027C60.7169 44.3851 60.8646 44.0825 60.9458 43.6742C61.0271 43.266 61.0825 42.7381 61.112 42.0905L61.1452 41.1825H63.4165V44.5822ZM71.0499 45.543C70.6437 45.6978 70.1858 45.7753 69.6761 45.7753C69.0262 45.7753 68.4537 45.6521 67.9589 45.4057C67.464 45.1594 67.0818 44.8162 66.8122 44.3763C66.5426 43.9364 66.4078 43.4384 66.4078 42.8824C66.4078 42.3333 66.5389 41.8389 66.8011 41.3989C67.0633 40.959 67.4271 40.6159 67.8924 40.3695C68.3577 40.1232 68.8821 40 69.4656 40C70.0417 40 70.5569 40.1214 71.0112 40.3643C71.4654 40.6071 71.8199 40.9485 72.0747 41.3884C72.3296 41.8283 72.457 42.3369 72.457 42.914C72.457 43.0055 72.4496 43.1357 72.4348 43.3047H67.7927C67.8739 43.72 68.0863 44.049 68.4297 44.2919C68.7732 44.5347 69.1997 44.6561 69.7094 44.6561C70.3593 44.6561 70.8948 44.452 71.3158 44.0437L72.0581 44.8567C71.7922 45.1594 71.4562 45.3881 71.0499 45.543ZM71.1386 42.4284H67.7816C67.8481 42.0131 68.0346 41.6805 68.3411 41.4306C68.6476 41.1807 69.0225 41.0558 69.4656 41.0558C69.9162 41.0558 70.2929 41.1825 70.5957 41.4359C70.8985 41.6893 71.0795 42.0201 71.1386 42.4284ZM76.0577 43.4419L74.6174 45.7014H72.9777L74.9165 42.7873L73.1217 40.0633H74.5952L76.0355 42.3439H77.0548V40.0633H78.4286V42.3439H79.4368L80.8881 40.0633H82.3617L80.5669 42.7873L82.5168 45.7014H80.866L79.4257 43.4419H78.4286V45.7014H77.0548V43.4419H76.0577ZM84.0014 46.9578V45.7014H88.5659V46.9578H89.8622V44.5822H88.9869V40.0633H84.1122L84.0346 41.9955C83.9903 42.812 83.8998 43.4437 83.7632 43.8906C83.6265 44.3376 83.3699 44.5681 82.9932 44.5822H82.7162V46.9578H84.0014ZM84.6883 44.5822H87.6021V41.1825H85.3309L85.2976 42.0905C85.2681 42.7381 85.2127 43.266 85.1314 43.6742C85.0502 44.0825 84.9025 44.3851 84.6883 44.5822ZM92.8314 45.7753C93.2745 45.7753 93.6531 45.7102 93.967 45.5799C94.2809 45.4497 94.5228 45.2614 94.6927 45.0151V45.7014H96V42.3967C96 41.5943 95.7692 40.9942 95.3076 40.5965C94.8459 40.1988 94.1793 40 93.3078 40C92.8203 40 92.3587 40.0598 91.9229 40.1795C91.4871 40.2991 91.1141 40.4716 90.8039 40.6968L91.3468 41.6576C91.5684 41.4816 91.8398 41.3444 92.1611 41.2459C92.4824 41.1473 92.8092 41.098 93.1416 41.098C93.6291 41.098 93.9965 41.2036 94.244 41.4148C94.4914 41.6259 94.6151 41.9286 94.6151 42.3228V42.4072H93.0862C92.2368 42.4072 91.6145 42.5603 91.2194 42.8665C90.8242 43.1727 90.6266 43.5792 90.6266 44.086C90.6266 44.4098 90.7171 44.7001 90.8981 44.957C91.079 45.2139 91.3357 45.4145 91.6681 45.5588C92.0005 45.7031 92.3882 45.7753 92.8314 45.7753ZM92.2885 44.6033C92.4879 44.7441 92.7649 44.8145 93.1194 44.8145C93.4666 44.8145 93.775 44.7388 94.0445 44.5875C94.3141 44.4361 94.5043 44.2197 94.6151 43.9382V43.2836H93.1859C92.3882 43.2836 91.9894 43.5334 91.9894 44.0332C91.9894 44.2725 92.0891 44.4625 92.2885 44.6033Z" fill="black"/>
</g>
<defs>
<filter id="filter0_d_1110_4826" x="0" y="0" width="182" height="73" filterUnits="userSpaceOnUse" color-interpolation-filters="sRGB">
<feFlood flood-opacity="0" result="BackgroundImageFix"/>
<feColorMatrix in="SourceAlpha" type="matrix" values="0 0 0 0 0 0 0 0 0 0 0 0 0 0 0 0 0 0 127 0" result="hardAlpha"/>
<feOffset dy="5"/>
<feGaussianBlur stdDeviation="8.5"/>
<feColorMatrix type="matrix" values="0 0 0 0 0 0 0 0 0 0 0 0 0 0 0 0 0 0 0.5 0"/>
<feBlend mode="normal" in2="BackgroundImageFix" result="effect1_dropShadow_1110_4826"/>
<feBlend mode="normal" in="SourceGraphic" in2="effect1_dropShadow_1110_4826" result="shape"/>
</filter>
</defs>
</svg>
