<svg width="69" height="45" viewBox="0 0 69 45" fill="none" xmlns="http://www.w3.org/2000/svg">
<path d="M67.2068 21.1688L65.0498 14.3395L66.5389 9.56678L64.6177 6.87723L66.2381 2.30435C66.5345 1.46791 65.737 0.676896 65.0585 1.13427L62.3144 2.98408L59.5638 4.11773L54.6088 9.96692L50.3743 10.6214L48.1264 13.6127L42.7577 13.2056L42.9271 10.5247C43.0613 8.40239 41.0008 7.0399 39.4676 8.23706L33.6409 12.7865L31.2881 10.4668L27.6985 12.8641L20.6032 10.0231L20.7819 7.37301C20.9403 5.02481 18.7323 3.44124 16.9619 4.63345L13.4166 7.02102L9.98506 6.25857C8.52793 5.93482 7.2218 7.34216 7.41184 9.031L7.6202 10.882L6.43916 17.2567L2.30949 20.1758C1.20755 20.9547 0.726024 22.5049 1.15641 23.9055C1.47571 24.9446 1.90095 27.5445 2.36633 30.2319C2.78633 32.6573 5.71636 32.9243 6.46238 30.6044L7.70894 26.7278L8.82261 25.8507C9.74189 25.1267 10.9776 25.2411 11.7837 26.1251L13.8191 28.3569L17.1411 28.0567L23.1428 28.9652L25.2677 34.3922C25.4853 34.9478 25.8797 35.3869 26.3702 35.6197L30.8969 37.7677C31.3663 37.9904 31.8905 38.0084 32.3707 37.8182L36.8314 36.0517L39.4052 38.4839L45.9037 40.0689C46.6244 40.2447 47.3478 39.7845 47.5996 38.9901L49.4889 33.0313L52.7254 36.458L56.8996 36.782L55.8838 40.8491C55.652 41.7769 55.9718 42.77 56.6737 43.3019C57.6299 44.0267 58.9228 43.639 59.4477 42.4701L62.1721 36.4023L59.435 29.6271L55.4995 28.6673L55.7009 24.9685L58.3922 22.8488L59.3417 16.4175L61.5885 21.2686L62.6764 23.5286C63.3336 24.8939 64.8224 25.4044 66.0247 24.6769C67.1268 24.0101 67.6313 22.5128 67.2068 21.1688Z" stroke="#A5FF14" stroke-width="2"/>
</svg>
