<svg xmlns="http://www.w3.org/2000/svg" width="323" height="111"><g fill="#FFF" fill-rule="evenodd"><path d="M30.278 9.276v3.897l17.368.059 3.93 3.988v12.56l-3.94 3.939H21V0h26.645l3.932 4.046v5.209h-1.584c-6.572 0-13.143.01-19.715.021zm33.906 15.322v9.12h-9.278V0H81.55l3.932 4.046v16.555l-3.94 3.997H64.184zm0-11.375h12.064V9.278H64.184v3.945zm119.532.3h12.064V9.278h-12.064v4.245zm-9.4 18.612v-7.537h-17.361l-3.938-3.997V4.046L156.947 0h44.134l3.934 4.046v16.555l-3.94 3.997h-17.359v9.12h-9.4v-1.583zM162.25 13.523h12.064V9.278H162.25v4.245zm90.357 11.075v9.12h-9.279V0h26.645l3.932 4.046v16.555l-3.94 3.997h-17.358zm0-11.075h12.064V9.278h-12.064v4.245zM132.643 9.43v24.44h-9.278V.151h22.758l3.932 4.047V9.43h-17.412zM88.812 32.135V0h9.234v17.175L110.91 0h8.479v33.719h-9.279V16.517L97.255 33.719h-8.443v-1.584zm150.25-1.892l-3.475 3.476h-22.695l-3.94-3.94V4.047L212.881 0h22.713l3.932 4.046V29.78l-.465.463zM218.23 24.44h12.064V9.278H218.23V24.44zm67.811-7.853V33.72h-9.28V0h8.5l9.854 13.69L305.13 0h8.276v33.719h-9.28v-17.05l-5.572 8.19h-6.762l-5.752-8.272zM30.278 24.44h12.064v-2.897H30.278v2.897z"/><path d="M19.974 105.195c5.187 0 9.691-.685 13.484-2.056 3.754-1.371 6.414-3.278 8.01-5.72 1.521-2.328 1.478-4.114-.105-5.358-1.552-1.245-4.539-1.867-8.986-1.867h-9.506l3.046-3.906h14.909L49.504 81H20.31L.1 105.195h19.874zM15 100.287l4.07-5.22h7.655c3.666 0 4.893.854 3.681 2.559-.605.852-1.55 1.51-2.835 1.97-1.29.46-2.859.691-4.705.691H15zm38.42 4.908l3.595-6.325h6.709c3.482 0 6.688-.363 9.602-1.089 2.895-.726 5.334-1.757 7.316-3.093 1.962-1.337 3.342-2.915 4.152-4.736.81-1.82.864-3.404.174-4.752-.67-1.348-2.005-2.385-4.005-3.111C78.983 81.363 76.42 81 73.26 81H57.29l-15.112 24.195h11.244zm6.66-11.717l4.026-7.086h5.659c2.091 0 3.508.311 4.255.933.754.623.851 1.498.284 2.627-.567 1.13-1.551 2-2.959 2.61-1.415.61-3.212.916-5.386.916h-5.88zm33.601 11.717l20.39-14.171-4.036 14.171h11.073L126.657 81h-9.282l-19.6 14.206L102.953 81h-9.731l-10.159 24.195h10.62zm47.018 0l2.463-18.768h12.193L159.744 81h-25.601l-4.517 24.195h11.073zm22.77 0l3.131-4.7h16.413l3.511 4.7h11.698L178.957 81h-9.731l-17.227 24.195h11.47zm15.994-9.747h-9.722l4.547-7.742 5.175 7.742zm31.797 14.621l-1.056-4.874h25.44l1.677 4.874h10.529l-4.076-10.3h-5.248L231.606 81H203.46l1.14 7.466c.537 3.64.543 6.43.009 8.365-.553 1.935-1.976 2.915-4.255 2.938h-1.381l7.517 10.3h4.77zm16.494-10.3h-14.64c.833-.968 1.279-2.35 1.339-4.148.05-1.797-.186-3.987-.703-6.567l-.516-2.627h10.34l4.18 13.342zm34.18 5.426l8.45-14.171 7.905 14.171h11.073L274.524 81h-9.282l-7.63 14.206L250.82 81h-9.732l10.228 24.195h10.619zm47.189 0l-4.505-6.325h6.708c3.483 0 6.224-.363 8.209-1.089 1.965-.726 3.084-1.757 3.354-3.093.251-1.337-.39-2.915-1.911-4.736-1.52-1.82-3.496-3.404-5.912-4.752-2.396-1.348-5.059-2.385-7.988-3.111-2.91-.726-5.938-1.089-9.098-1.089h-15.97l15.87 24.195h11.243zm-8.345-11.717l-5.047-7.086h5.659c2.091 0 3.906.311 5.45.933 1.551.623 2.769 1.498 3.648 2.627.879 1.13 1.008 2 .382 2.61-.633.61-2.039.916-4.212.916h-5.88z" fill-rule="nonzero" opacity=".24"/></g></svg>