<svg xmlns="http://www.w3.org/2000/svg" xmlns:xlink="http://www.w3.org/1999/xlink" width="323px" height="111px" viewBox="0 0 323 111" version="1.1">
	<title>
		Group 13
	</title>
	<g id="1366" stroke="none" stroke-width="1" fill="none" fill-rule="evenodd">
		<g id="1-геолокация-copy-2" transform="translate(-192.000000, -180.000000)" fill="#FFFFFF">
			<g id="Group-13" transform="translate(192.099651, 180.000000)">
				<path d="M30.1787098,9.27597822 L30.1787098,13.173438 L47.546296,13.2318225 L51.4771184,17.2198378 L51.4771184,29.7796434 L47.5367638,33.7188064 L20.9003486,33.7188064 L20.9003486,0 L47.5451045,0 L51.4771184,4.04639975 L51.4771184,9.25453087 L49.8935891,9.25453087 C43.3211684,9.25453087 36.7499391,9.26406302 30.1787098,9.27597822 L30.1787098,9.27597822 Z M64.0845847,24.5977257 L64.0845847,33.7188064 L54.8062235,33.7188064 L54.8062235,0 L81.4509794,0 L85.3829933,4.04639975 L85.3829933,20.6013697 L81.4438303,24.5977257 L64.0845847,24.5977257 Z M64.0845847,13.2234819 L76.1487182,13.2234819 L76.1487182,9.27836125 L64.0845847,9.27836125 L64.0845847,13.2234819 Z M183.616615,13.5225532 L195.680749,13.5225532 L195.680749,9.27836125 L183.616615,9.27836125 L183.616615,13.5225532 Z M174.215528,32.1352771 L174.215528,24.5977257 L156.855091,24.5977257 L152.917119,20.6013697 L152.917119,4.04639975 L156.847941,0 L200.981819,0 L204.915024,4.04639975 L204.915024,20.6013697 L200.975861,24.5977257 L183.616615,24.5977257 L183.616615,33.7188064 L174.215528,33.7188064 L174.215528,32.1352771 Z M162.151394,13.5225532 L174.215528,13.5225532 L174.215528,9.27836125 L162.151394,9.27836125 L162.151394,13.5225532 Z M252.507882,24.5977257 L252.507882,33.7188064 L243.22952,33.7188064 L243.22952,0 L269.874276,0 L273.80629,4.04639975 L273.80629,20.6013697 L269.867127,24.5977257 L252.507882,24.5977257 Z M252.507882,13.5225532 L264.572015,13.5225532 L264.572015,9.27836125 L252.507882,9.27836125 L252.507882,13.5225532 Z M132.54333,9.43087573 L132.54333,33.8713208 L123.264968,33.8713208 L123.264968,0.151322959 L146.022988,0.151322959 L149.955002,4.1977227 L149.955002,9.43087573 L132.54333,9.43087573 Z M88.7120984,32.1352771 L88.7120984,0 L97.9463734,0 L97.9463734,17.1745601 L110.810016,0 L119.288868,0 L119.288868,33.7188064 L110.010507,33.7188064 L110.010507,16.5168414 L97.1552045,33.7188064 L88.7120984,33.7188064 L88.7120984,32.1352771 Z M238.96269,30.2431444 L235.487028,33.7188064 L212.792158,33.7188064 L208.851804,29.7796434 L208.851804,4.04639975 L212.782626,0 L235.495368,0 L239.427382,4.04639975 L239.427382,29.7796434 L238.96269,30.2431444 Z M218.128974,24.4404451 L230.193107,24.4404451 L230.193107,9.27836125 L218.128974,9.27836125 L218.128974,24.4404451 Z M285.940723,16.587141 L285.940723,33.7188064 L276.661171,33.7188064 L276.661171,0 L285.160278,0 L295.014143,13.6905574 L305.030055,0 L313.306349,0 L313.306349,33.7188064 L304.026796,33.7188064 L304.026796,16.6681643 L298.45406,24.8598599 L291.692187,24.8598599 L285.940723,16.587141 Z M30.1787098,24.4404451 L42.2428433,24.4404451 L42.2428433,21.54267 L30.1787098,21.54267 L30.1787098,24.4404451 Z" id="Fill-1" />
				<path d="M19.874696,105.195439 C25.0610452,105.195439 29.5655296,104.509902 33.3585183,103.138827 C37.1119994,101.767752 39.7721633,99.8609208 41.368641,97.4183337 C42.889813,95.0909628 42.8465649,93.305109 41.2629576,92.0607721 C39.7114317,90.8164353 36.7243901,90.1942668 32.2777717,90.1942668 L22.7718119,90.1942668 L25.8178042,86.2884317 L40.7262554,86.2884317 L49.4048314,81 L20.2106202,81 L0,105.195439 L19.874696,105.195439 Z M14.9007521,100.287221 L18.9710604,95.0679196 L26.6255684,95.0679196 C30.2911075,95.0679196 31.5181268,95.9205208 30.3066265,97.6257231 C29.7008763,98.4783243 28.7570851,99.1350577 27.4718457,99.5959232 C26.182063,100.056789 24.6123156,100.287221 22.7660108,100.287221 L14.9007521,100.287221 Z M53.3209701,105.195439 L56.9156396,98.87006 L63.6239514,98.87006 C67.1064083,98.87006 70.3120956,98.5071284 73.2265647,97.7812652 C76.1217693,97.0554021 78.5603142,96.0242155 80.5422059,94.6877055 C82.5048418,93.3511956 83.8841324,91.7727312 84.6945197,89.9523125 C85.504907,88.1318937 85.5580417,86.5476685 84.8684901,85.1996369 C84.1983603,83.8516053 82.8635048,82.8146579 80.8638055,82.0887948 C78.8833709,81.3629316 76.3200643,81 73.1594375,81 L57.1899544,81 L42.0775707,105.195439 L53.3209701,105.195439 Z M59.979948,93.4779336 L64.0067636,86.3921264 L69.6649369,86.3921264 C71.7567464,86.3921264 73.1734302,86.7032106 73.9204728,87.3253791 C74.6748282,87.9475475 74.7713178,88.823192 74.2044572,89.9523125 C73.6375966,91.0814329 72.6530222,91.9513166 71.2453509,92.5619634 C69.8305024,93.1726102 68.0335119,93.4779336 65.8597624,93.4779336 L59.979948,93.4779336 Z M93.5814257,105.195439 L113.971344,91.0238248 L109.935461,105.195439 L121.008506,105.195439 L126.557396,81 L117.275134,81 L97.675862,95.2061792 L102.852695,81 L93.1212913,81 L82.9626595,105.195439 L93.5814257,105.195439 Z M140.599278,105.195439 L143.062339,86.4266913 L155.25546,86.4266913 L159.644169,81 L134.043092,81 L129.526233,105.195439 L140.599278,105.195439 Z M163.370001,105.195439 L166.50052,100.494611 L182.913163,100.494611 L186.424648,105.195439 L198.122327,105.195439 L178.857453,81 L169.12605,81 L151.899462,105.195439 L163.370001,105.195439 Z M179.363531,95.4481336 L169.641172,95.4481336 L174.188614,87.7055931 L179.363531,95.4481336 Z M211.160656,110.069092 L210.103929,105.195439 L235.54354,105.195439 L237.221137,110.069092 L247.750037,110.069092 L243.674327,99.7687477 L238.426365,99.7687477 L231.506843,81 L203.360629,81 L204.499532,88.4660212 C205.037361,92.1068587 205.043132,94.895095 204.509021,96.8307301 C203.956197,98.7663653 202.533427,99.7457045 200.254341,99.7687477 L198.873298,99.7687477 L206.390657,110.069092 L211.160656,110.069092 Z M227.654231,99.7687477 L213.015177,99.7687477 C213.847651,98.8009302 214.293394,97.4183337 214.353231,95.6209582 C214.403528,93.8235827 214.167806,91.6344716 213.650283,89.0536247 L213.134199,86.4266913 L223.4752,86.4266913 L227.654231,99.7687477 Z M261.834923,105.195439 L270.284432,91.0238248 L278.188959,105.195439 L289.262004,105.195439 L274.424829,81 L265.142567,81 L257.512827,95.2061792 L250.720127,81 L240.988723,81 L251.216157,105.195439 L261.834923,105.195439 Z M309.02313,105.195439 L304.518327,98.87006 L311.226638,98.87006 C314.709095,98.87006 317.450059,98.5071284 319.43508,97.7812652 C321.400837,97.0554021 322.518976,96.0242155 322.789504,94.6877055 C323.040776,93.3511956 322.398886,91.7727312 320.878278,89.9523125 C319.357669,88.1318937 317.382247,86.5476685 314.966578,85.1996369 C312.570331,83.8516053 309.907693,82.8146579 306.978546,82.0887948 C304.068664,81.3629316 301.040634,81 297.880007,81 L281.910524,81 L297.779731,105.195439 L309.02313,105.195439 Z M300.678166,93.4779336 L295.631802,86.3921264 L301.289975,86.3921264 C303.381785,86.3921264 305.196803,86.7032106 306.740515,87.3253791 C308.29154,87.9475475 309.509268,88.823192 310.388215,89.9523125 C311.267162,91.0814329 311.39645,91.9513166 310.770695,92.5619634 C310.137763,93.1726102 308.73173,93.4779336 306.557981,93.4779336 L300.678166,93.4779336 Z" id="БРИГАДИР" fill-rule="nonzero" opacity="0.240490141" />
			</g>
		</g>
	</g>
</svg>
